<svg xmlns="http://www.w3.org/2000/svg" viewBox="0 0 512 512">
  <rect width="512" height="512" rx="112" fill="#fff8e8"/>
  <circle cx="256" cy="150" r="98" fill="#f49a28"/>
  <circle cx="256" cy="150" r="62" fill="#ffd27a"/>
  <path d="M70 344c74-64 146-64 218 0s126 62 154 28" fill="none" stroke="#087c8c" stroke-width="42" stroke-linecap="round"/>
  <path d="M80 405c68-38 132-38 198 0 64 36 118 32 154-4" fill="none" stroke="#075362" stroke-width="24" stroke-linecap="round"/>
  <path d="M174 320c0-62 36-104 82-104s82 42 82 104" fill="none" stroke="#233333" stroke-width="28" stroke-linecap="round"/>
  <path d="M190 322h132" stroke="#233333" stroke-width="28" stroke-linecap="round"/>
  <path d="M128 238l-34 56h68zM384 238l-34 56h68z" fill="#1e5244"/>
</svg>
